<?xml version="1.0" encoding="utf-8"?>
<!-- Generator: Adobe Illustrator 16.0.0, SVG Export Plug-In . SVG Version: 6.00 Build 0)  -->
<!DOCTYPE svg PUBLIC "-//W3C//DTD SVG 1.1//EN" "http://www.w3.org/Graphics/SVG/1.1/DTD/svg11.dtd">
<svg version="1.1" id="Layer_1" xmlns="http://www.w3.org/2000/svg" xmlns:xlink="http://www.w3.org/1999/xlink" x="0px" y="0px"
	 width="551.923px" height="281.41px" viewBox="0 0 551.923 281.41" enable-background="new 0 0 551.923 281.41"
	 xml:space="preserve">
<g>
	<g>
		<linearGradient id="SVGID_1_" gradientUnits="userSpaceOnUse" x1="108.9976" y1="109.9487" x2="108.9976" y2="246.7776">
			<stop  offset="0" style="stop-color:#EA0F58"/>
			<stop  offset="1" style="stop-color:#A80F58"/>
		</linearGradient>
		<path fill="url(#SVGID_1_)" d="M193.168,74.399c0.642,4.211,0.977,8.524,0.977,12.916c0,1.753-0.07,3.489-0.175,5.216
			c0.059-1.299,0.099-2.604,0.099-3.918c0-46.852-37.979-84.83-84.83-84.83c-34.332,0-63.877,20.405-77.228,49.739
			c-5.221,10.347-8.214,21.865-8.214,34.125c0,81.35,85.2,187.442,85.2,187.442s85.201-106.093,85.201-187.442
			C194.198,83.141,193.843,78.717,193.168,74.399z M144.056,47.271c9.857,8.498,15.227,20.206,15.227,35.124v16.22H77.258
			c0.517,6,3.956,12.975,10.315,17.581c6.354,4.605,13.621,6.601,21.794,6.601c12.972,0,22.836-4.246,29.583-12.417l12.454,13.548
			c-11.159,11.545-25.688,17.281-43.592,17.281c-14.532,0-26.893-4.854-37.076-14.52c-10.186-9.664-15.275-22.65-15.275-38.933
			c0-16.28,5.188-29.227,15.569-38.829c10.377-9.6,22.685-14.403,36.764-14.403C121.869,34.524,134.194,38.774,144.056,47.271z"/>
		<linearGradient id="SVGID_2_" gradientUnits="userSpaceOnUse" x1="106.936" y1="109.9487" x2="106.936" y2="246.7777">
			<stop  offset="0" style="stop-color:#EA0F58"/>
			<stop  offset="1" style="stop-color:#A80F58"/>
		</linearGradient>
		<path fill="url(#SVGID_2_)" d="M128.44,59.893c-5.449-4.673-12.163-6.848-20.143-6.848c-7.979,0-15.15,2.192-21.507,7.057
			c-6.356,4.866-9.533,11.514-9.533,19.514h59.356C136.614,70.615,133.89,64.562,128.44,59.893z"/>
	</g>
	<g>
		<path fill="#2D2D2D" d="M222.871,142.437l-23.896-69.795h20.115l14.715,47.655h0.271l14.715-47.655h19.035l-23.625,69.795H222.871
			z"/>
		<path fill="#2D2D2D" d="M290.099,125.696c2.88,2.791,7.021,4.185,12.421,4.185c3.868,0,7.199-0.966,9.989-2.902
			c2.789-1.934,4.5-3.982,5.13-6.143h16.875c-2.699,8.37-6.84,14.356-12.42,17.955c-5.581,3.601-12.331,5.4-20.25,5.4
			c-5.49,0-10.441-0.877-14.85-2.633c-4.411-1.754-8.146-4.252-11.205-7.492c-3.061-3.24-5.423-7.108-7.088-11.61
			c-1.666-4.5-2.497-9.45-2.497-14.85c0-5.219,0.854-10.079,2.565-14.58c1.708-4.499,4.138-8.391,7.289-11.677
			c3.149-3.284,6.906-5.873,11.273-7.763c4.364-1.89,9.2-2.835,14.512-2.835c5.94,0,11.114,1.147,15.525,3.442
			c4.408,2.295,8.032,5.379,10.867,9.248c2.835,3.871,4.881,8.282,6.143,13.23c1.26,4.951,1.709,10.125,1.351,15.525h-50.355
			C285.645,118.407,287.218,122.908,290.099,125.696z M311.767,88.977c-2.295-2.519-5.784-3.78-10.463-3.78
			c-3.061,0-5.603,0.519-7.627,1.553c-2.025,1.036-3.646,2.318-4.86,3.848c-1.215,1.531-2.071,3.151-2.564,4.86
			c-0.496,1.71-0.789,3.24-0.878,4.59h31.185C315.658,95.187,314.062,91.497,311.767,88.977z"/>
		<path fill="#2D2D2D" d="M359.083,72.642v9.72h0.405c2.43-4.05,5.579-6.997,9.45-8.842c3.868-1.844,7.83-2.768,11.88-2.768
			c5.13,0,9.336,0.698,12.622,2.093c3.285,1.396,5.873,3.331,7.763,5.805c1.891,2.477,3.217,5.491,3.982,9.045
			c0.764,3.557,1.147,7.493,1.147,11.812v42.93h-19.17v-39.42c0-5.759-0.9-10.058-2.7-12.893c-1.801-2.835-4.994-4.252-9.585-4.252
			c-5.221,0-9,1.552-11.34,4.657c-2.341,3.105-3.51,8.214-3.51,15.323v36.585h-19.17V72.642H359.083z"/>
		<path fill="#2D2D2D" d="M453.041,72.642v12.825h-14.04v34.56c0,3.24,0.54,5.4,1.62,6.48c1.08,1.08,3.24,1.62,6.48,1.62
			c1.079,0,2.113-0.044,3.104-0.135c0.989-0.089,1.935-0.224,2.835-0.405v14.85c-1.62,0.271-3.421,0.449-5.399,0.54
			c-1.981,0.088-3.915,0.135-5.806,0.135c-2.97,0-5.784-0.202-8.438-0.607c-2.655-0.404-4.995-1.191-7.02-2.362
			c-2.025-1.168-3.624-2.835-4.793-4.995c-1.171-2.16-1.755-4.995-1.755-8.505V85.466h-11.61V72.642h11.61V51.716h19.17v20.925
			H453.041z"/>
		<path fill="#2D2D2D" d="M206.499,186.196c-3.061,0-5.625,0.698-7.694,2.093c-2.072,1.396-3.76,3.195-5.062,5.4
			c-1.306,2.206-2.228,4.636-2.768,7.289c-0.54,2.656-0.811,5.289-0.811,7.898c0,2.521,0.271,5.086,0.811,7.694
			c0.54,2.612,1.417,4.974,2.632,7.088c1.215,2.116,2.856,3.847,4.928,5.197c2.069,1.351,4.59,2.024,7.561,2.024
			c4.59,0,8.121-1.281,10.597-3.847c2.475-2.565,4.027-6.008,4.658-10.327h18.495c-1.262,9.27-4.86,16.334-10.801,21.194
			c-5.939,4.86-13.546,7.29-22.814,7.29c-5.221,0-10.014-0.877-14.378-2.633c-4.366-1.754-8.079-4.205-11.138-7.357
			c-3.061-3.148-5.446-6.906-7.154-11.271c-1.711-4.365-2.565-9.157-2.565-14.378c0-5.4,0.787-10.417,2.362-15.053
			c1.574-4.634,3.893-8.64,6.953-12.015c3.059-3.375,6.794-6.008,11.205-7.898c4.408-1.89,9.449-2.834,15.119-2.834
			c4.139,0,8.121,0.539,11.948,1.619c3.824,1.08,7.243,2.724,10.26,4.928c3.015,2.207,5.468,4.951,7.357,8.235
			c1.89,3.286,2.97,7.179,3.24,11.677h-18.766C219.413,190.202,214.688,186.196,206.499,186.196z"/>
		<path fill="#2D2D2D" d="M264.952,226.696c2.88,2.791,7.021,4.185,12.421,4.185c3.868,0,7.199-0.965,9.989-2.902
			c2.789-1.934,4.5-3.982,5.13-6.143h16.875c-2.699,8.371-6.84,14.357-12.42,17.955c-5.581,3.602-12.331,5.4-20.25,5.4
			c-5.49,0-10.441-0.877-14.85-2.633c-4.411-1.754-8.146-4.252-11.205-7.492c-3.061-3.24-5.423-7.108-7.088-11.609
			c-1.666-4.5-2.497-9.451-2.497-14.851c0-5.219,0.854-10.079,2.565-14.58c1.708-4.499,4.138-8.392,7.289-11.677
			c3.149-3.285,6.906-5.873,11.273-7.764c4.364-1.89,9.2-2.834,14.512-2.834c5.94,0,11.114,1.146,15.525,3.441
			c4.408,2.296,8.032,5.379,10.867,9.248c2.835,3.871,4.881,8.281,6.143,13.23c1.26,4.95,1.709,10.125,1.351,15.524h-50.355
			C260.498,219.406,262.071,223.908,264.952,226.696z M286.62,189.977c-2.295-2.519-5.784-3.78-10.463-3.78
			c-3.061,0-5.603,0.519-7.627,1.553c-2.025,1.036-3.646,2.318-4.86,3.848c-1.215,1.531-2.071,3.151-2.564,4.86
			c-0.496,1.71-0.789,3.239-0.878,4.59h31.185C290.512,196.187,288.915,192.497,286.62,189.977z"/>
		<path fill="#2D2D2D" d="M333.937,173.642v9.72h0.405c2.43-4.05,5.579-6.996,9.45-8.842c3.868-1.844,7.83-2.768,11.88-2.768
			c5.13,0,9.336,0.697,12.622,2.092c3.285,1.396,5.873,3.331,7.763,5.805c1.891,2.477,3.217,5.491,3.982,9.045
			c0.764,3.557,1.147,7.493,1.147,11.812v42.931h-19.17v-39.42c0-5.759-0.9-10.058-2.7-12.893c-1.801-2.835-4.994-4.253-9.585-4.253
			c-5.221,0-9,1.553-11.34,4.658c-2.341,3.104-3.51,8.214-3.51,15.322v36.585h-19.17v-69.795H333.937z"/>
		<path fill="#2D2D2D" d="M427.895,173.642v12.825h-14.04v34.56c0,3.24,0.54,5.4,1.62,6.479c1.08,1.08,3.24,1.621,6.48,1.621
			c1.079,0,2.113-0.045,3.104-0.135c0.989-0.09,1.935-0.225,2.835-0.406v14.851c-1.62,0.271-3.421,0.449-5.399,0.54
			c-1.981,0.088-3.915,0.135-5.806,0.135c-2.97,0-5.784-0.202-8.438-0.607c-2.655-0.404-4.995-1.191-7.02-2.362
			c-2.025-1.169-3.624-2.835-4.793-4.995c-1.171-2.16-1.755-4.995-1.755-8.505v-41.175h-11.61v-12.825h11.61v-20.925h19.17v20.925
			H427.895z"/>
		<path fill="#2D2D2D" d="M451.383,226.696c2.88,2.791,7.021,4.185,12.421,4.185c3.868,0,7.199-0.965,9.989-2.902
			c2.789-1.934,4.5-3.982,5.13-6.143h16.875c-2.699,8.371-6.84,14.357-12.42,17.955c-5.581,3.602-12.331,5.4-20.25,5.4
			c-5.49,0-10.441-0.877-14.85-2.633c-4.411-1.754-8.146-4.252-11.205-7.492c-3.061-3.24-5.423-7.108-7.088-11.609
			c-1.666-4.5-2.497-9.451-2.497-14.851c0-5.219,0.854-10.079,2.565-14.58c1.708-4.499,4.138-8.392,7.289-11.677
			c3.149-3.285,6.906-5.873,11.273-7.764c4.364-1.89,9.2-2.834,14.512-2.834c5.94,0,11.114,1.146,15.525,3.441
			c4.408,2.296,8.032,5.379,10.867,9.248c2.835,3.871,4.881,8.281,6.143,13.23c1.26,4.95,1.709,10.125,1.351,15.524h-50.355
			C446.929,219.406,448.502,223.908,451.383,226.696z M473.051,189.977c-2.295-2.519-5.784-3.78-10.463-3.78
			c-3.061,0-5.603,0.519-7.627,1.553c-2.025,1.036-3.646,2.318-4.86,3.848c-1.215,1.531-2.071,3.151-2.564,4.86
			c-0.496,1.71-0.789,3.239-0.878,4.59h31.185C476.942,196.187,475.346,192.497,473.051,189.977z"/>
		<path fill="#2D2D2D" d="M520.367,173.642v12.96h0.271c0.898-2.16,2.113-4.162,3.645-6.008c1.529-1.844,3.284-3.419,5.266-4.725
			c1.979-1.304,4.094-2.316,6.345-3.037c2.249-0.72,4.59-1.08,7.02-1.08c1.26,0,2.654,0.225,4.186,0.675v17.819
			c-0.9-0.179-1.98-0.337-3.24-0.473c-1.262-0.135-2.477-0.202-3.645-0.202c-3.511,0-6.48,0.587-8.91,1.755
			c-2.431,1.171-4.388,2.768-5.873,4.793c-1.484,2.025-2.544,4.387-3.172,7.088c-0.631,2.699-0.945,5.625-0.945,8.774v31.455h-19.17
			v-69.795H520.367z"/>
	</g>
</g>
<g>
</g>
<g>
</g>
<g>
</g>
<g>
</g>
<g>
</g>
<g>
</g>
<g>
</g>
<g>
</g>
<g>
</g>
<g>
</g>
<g>
</g>
<g>
</g>
<g>
</g>
<g>
</g>
<g>
</g>
</svg>
