<?xml version="1.0" encoding="utf-8"?>
<!-- Generator: Adobe Illustrator 16.0.0, SVG Export Plug-In . SVG Version: 6.00 Build 0)  -->
<!DOCTYPE svg PUBLIC "-//W3C//DTD SVG 1.1//EN" "http://www.w3.org/Graphics/SVG/1.1/DTD/svg11.dtd">
<svg version="1.1" id="Layer_1" xmlns="http://www.w3.org/2000/svg" xmlns:xlink="http://www.w3.org/1999/xlink" x="0px" y="0px"
	 width="551.922px" height="281.41px" viewBox="0 0 551.922 281.41" enable-background="new 0 0 551.922 281.41"
	 xml:space="preserve">
<g>
	<g>
		<linearGradient id="SVGID_1_" gradientUnits="userSpaceOnUse" x1="99.7153" y1="111.3335" x2="99.7153" y2="248.1624">
			<stop  offset="0" style="stop-color:#EA0F58"/>
			<stop  offset="1" style="stop-color:#A80F58"/>
		</linearGradient>
		<path fill="url(#SVGID_1_)" d="M183.886,75.784c0.642,4.211,0.977,8.524,0.977,12.916c0,1.753-0.07,3.489-0.175,5.216
			c0.059-1.299,0.099-2.604,0.099-3.918c0-46.852-37.979-84.83-84.83-84.83c-34.332,0-63.877,20.405-77.228,49.739
			c-5.221,10.347-8.214,21.865-8.214,34.125c0,81.35,85.2,187.442,85.2,187.442s85.201-106.093,85.201-187.442
			C184.916,84.525,184.561,80.102,183.886,75.784z M135.004,48.656c9.857,8.498,15.457,20.206,15.457,35.124v16.425H67.976
			c0.517,6,3.956,12.872,10.315,17.479c6.354,4.605,13.621,6.549,21.794,6.549c12.972,0,22.836-4.272,29.583-12.443l12.454,13.535
			c-11.159,11.545-25.688,17.275-43.592,17.275c-14.532,0-26.893-4.857-37.076-14.523c-10.186-9.664-15.275-22.652-15.275-38.936
			c0-16.279,5.188-29.227,15.569-38.829c10.377-9.6,22.8-14.405,36.879-14.405C112.702,35.909,125.143,40.159,135.004,48.656z"/>
		<linearGradient id="SVGID_2_" gradientUnits="userSpaceOnUse" x1="97.6538" y1="111.7134" x2="97.6538" y2="249.3319">
			<stop  offset="0" style="stop-color:#EA0F58"/>
			<stop  offset="1" style="stop-color:#A80F58"/>
		</linearGradient>
		<path fill="url(#SVGID_2_)" d="M119.158,61.38c-5.449-4.673-12.163-6.899-20.143-6.899c-7.979,0-15.15,2.268-21.507,7.133
			c-6.356,4.866-9.533,11.591-9.533,19.591h59.356C127.332,72.205,124.607,66.05,119.158,61.38z"/>
	</g>
	<g>
		<path fill="#F9F9F9" d="M213.589,143.821l-23.896-69.795h20.115l14.715,47.655h0.271l14.715-47.655h19.035l-23.625,69.795H213.589
			z"/>
		<path fill="#F9F9F9" d="M280.817,127.081c2.879,2.791,7.02,4.185,12.42,4.185c3.869,0,7.199-0.965,9.99-2.902
			c2.789-1.934,4.5-3.982,5.129-6.143h16.875c-2.699,8.371-6.84,14.357-12.42,17.955c-5.58,3.602-12.33,5.4-20.25,5.4
			c-5.49,0-10.441-0.877-14.85-2.633c-4.411-1.754-8.146-4.252-11.205-7.492c-3.061-3.24-5.423-7.108-7.088-11.609
			c-1.666-4.5-2.497-9.451-2.497-14.851c0-5.219,0.854-10.079,2.565-14.58c1.708-4.499,4.138-8.392,7.289-11.677
			c3.149-3.285,6.906-5.873,11.273-7.764c4.365-1.89,9.201-2.834,14.512-2.834c5.941,0,11.115,1.146,15.525,3.441
			c4.408,2.296,8.033,5.379,10.867,9.248c2.836,3.871,4.881,8.281,6.143,13.23c1.26,4.95,1.709,10.125,1.352,15.524h-50.356
			C276.362,119.791,277.936,124.293,280.817,127.081z M302.485,90.361c-2.295-2.519-5.785-3.78-10.463-3.78
			c-3.061,0-5.604,0.519-7.627,1.553c-2.025,1.036-3.646,2.318-4.861,3.848c-1.215,1.531-2.07,3.151-2.564,4.86
			c-0.496,1.71-0.789,3.239-0.877,4.59h31.184C306.375,96.571,304.78,92.882,302.485,90.361z"/>
		<path fill="#F9F9F9" d="M349.801,74.026v9.72h0.404c2.43-4.05,5.58-6.996,9.451-8.842c3.867-1.844,7.83-2.768,11.879-2.768
			c5.131,0,9.336,0.697,12.623,2.092c3.285,1.396,5.873,3.331,7.762,5.805c1.891,2.477,3.217,5.491,3.982,9.045
			c0.764,3.557,1.148,7.493,1.148,11.812v42.931h-19.17v-39.42c0-5.759-0.9-10.058-2.701-12.893s-4.994-4.253-9.584-4.253
			c-5.221,0-9,1.553-11.34,4.658c-2.342,3.104-3.51,8.214-3.51,15.322v36.585h-19.17V74.026H349.801z"/>
		<path fill="#F9F9F9" d="M443.758,74.026v12.825h-14.039v34.56c0,3.24,0.539,5.4,1.619,6.479c1.08,1.08,3.24,1.621,6.48,1.621
			c1.08,0,2.113-0.045,3.105-0.135c0.988-0.09,1.934-0.225,2.834-0.406v14.851c-1.619,0.271-3.42,0.449-5.398,0.54
			c-1.982,0.088-3.916,0.135-5.807,0.135c-2.969,0-5.783-0.202-8.438-0.607c-2.654-0.404-4.994-1.191-7.02-2.362
			c-2.025-1.169-3.623-2.835-4.793-4.995s-1.754-4.995-1.754-8.505V86.852h-11.611V74.026h11.611V53.102h19.17v20.925H443.758z"/>
		<path fill="#F9F9F9" d="M197.217,187.581c-3.061,0-5.625,0.698-7.694,2.093c-2.072,1.396-3.76,3.195-5.062,5.4
			c-1.306,2.206-2.228,4.636-2.768,7.289c-0.54,2.656-0.811,5.289-0.811,7.898c0,2.521,0.271,5.086,0.811,7.694
			c0.54,2.612,1.417,4.974,2.632,7.088c1.215,2.116,2.856,3.847,4.928,5.197c2.069,1.351,4.59,2.024,7.561,2.024
			c4.59,0,8.121-1.281,10.597-3.847c2.475-2.565,4.027-6.008,4.658-10.327h18.495c-1.262,9.27-4.86,16.334-10.801,21.194
			c-5.939,4.86-13.546,7.29-22.814,7.29c-5.221,0-10.014-0.877-14.378-2.633c-4.366-1.754-8.079-4.205-11.138-7.357
			c-3.061-3.148-5.446-6.906-7.154-11.271c-1.711-4.365-2.565-9.157-2.565-14.378c0-5.4,0.787-10.417,2.362-15.053
			c1.574-4.634,3.893-8.64,6.953-12.015c3.059-3.375,6.794-6.008,11.205-7.898c4.408-1.89,9.449-2.834,15.119-2.834
			c4.139,0,8.121,0.539,11.948,1.619c3.824,1.08,7.243,2.724,10.26,4.928c3.015,2.207,5.468,4.951,7.357,8.235
			c1.89,3.286,2.97,7.179,3.24,11.677h-18.766C210.131,191.587,205.405,187.581,197.217,187.581z"/>
		<path fill="#F9F9F9" d="M255.67,228.081c2.88,2.791,7.021,4.185,12.421,4.185c3.868,0,7.199-0.965,9.99-2.902
			c2.789-1.934,4.5-3.982,5.129-6.143h16.875c-2.699,8.371-6.84,14.357-12.42,17.955c-5.58,3.602-12.331,5.4-20.25,5.4
			c-5.49,0-10.441-0.877-14.85-2.633c-4.411-1.754-8.146-4.252-11.205-7.492c-3.061-3.24-5.423-7.108-7.088-11.609
			c-1.666-4.5-2.497-9.451-2.497-14.851c0-5.219,0.854-10.079,2.565-14.58c1.708-4.499,4.138-8.392,7.289-11.677
			c3.149-3.285,6.906-5.873,11.273-7.764c4.364-1.89,9.2-2.834,14.512-2.834c5.94,0,11.115,1.146,15.525,3.441
			c4.408,2.296,8.033,5.379,10.867,9.248c2.836,3.871,4.881,8.281,6.143,13.23c1.26,4.95,1.709,10.125,1.352,15.524h-50.356
			C251.216,220.791,252.789,225.293,255.67,228.081z M277.338,191.361c-2.295-2.519-5.785-3.78-10.463-3.78
			c-3.061,0-5.603,0.519-7.627,1.553c-2.025,1.036-3.646,2.318-4.86,3.848c-1.215,1.531-2.071,3.151-2.564,4.86
			c-0.496,1.71-0.789,3.239-0.878,4.59h31.184C281.229,197.571,279.633,193.882,277.338,191.361z"/>
		<path fill="#F9F9F9" d="M324.655,175.026v9.72h0.404c2.43-4.05,5.58-6.996,9.451-8.842c3.867-1.844,7.83-2.768,11.879-2.768
			c5.131,0,9.336,0.697,12.623,2.092c3.285,1.396,5.873,3.331,7.762,5.805c1.891,2.477,3.217,5.491,3.982,9.045
			c0.764,3.557,1.148,7.493,1.148,11.812v42.931h-19.17v-39.42c0-5.759-0.9-10.058-2.701-12.893s-4.994-4.253-9.584-4.253
			c-5.221,0-9,1.553-11.34,4.658c-2.342,3.104-3.51,8.214-3.51,15.322v36.585h-19.17v-69.795H324.655z"/>
		<path fill="#F9F9F9" d="M418.612,175.026v12.825h-14.039v34.56c0,3.24,0.539,5.4,1.619,6.479c1.08,1.08,3.24,1.621,6.48,1.621
			c1.08,0,2.113-0.045,3.105-0.135c0.988-0.09,1.934-0.225,2.834-0.406v14.851c-1.619,0.271-3.42,0.449-5.398,0.54
			c-1.982,0.088-3.916,0.135-5.807,0.135c-2.969,0-5.783-0.202-8.438-0.607c-2.654-0.404-4.994-1.191-7.02-2.362
			c-2.025-1.169-3.623-2.835-4.793-4.995s-1.754-4.995-1.754-8.505v-41.175h-11.611v-12.825h11.611v-20.925h19.17v20.925H418.612z"
			/>
		<path fill="#F9F9F9" d="M442.1,228.081c2.881,2.791,7.021,4.185,12.422,4.185c3.867,0,7.199-0.965,9.988-2.902
			c2.789-1.934,4.5-3.982,5.131-6.143h16.875c-2.699,8.371-6.84,14.357-12.42,17.955c-5.582,3.602-12.332,5.4-20.25,5.4
			c-5.49,0-10.441-0.877-14.85-2.633c-4.412-1.754-8.146-4.252-11.205-7.492c-3.061-3.24-5.424-7.108-7.088-11.609
			c-1.666-4.5-2.498-9.451-2.498-14.851c0-5.219,0.855-10.079,2.566-14.58c1.707-4.499,4.137-8.392,7.289-11.677
			c3.148-3.285,6.906-5.873,11.273-7.764c4.363-1.89,9.199-2.834,14.512-2.834c5.939,0,11.113,1.146,15.525,3.441
			c4.408,2.296,8.031,5.379,10.867,9.248c2.834,3.871,4.881,8.281,6.143,13.23c1.26,4.95,1.709,10.125,1.35,15.524h-50.355
			C437.647,220.791,439.219,225.293,442.1,228.081z M463.768,191.361c-2.295-2.519-5.783-3.78-10.463-3.78
			c-3.061,0-5.602,0.519-7.627,1.553c-2.025,1.036-3.645,2.318-4.859,3.848c-1.215,1.531-2.072,3.151-2.564,4.86
			c-0.496,1.71-0.789,3.239-0.879,4.59h31.186C467.661,197.571,466.063,193.882,463.768,191.361z"/>
		<path fill="#F9F9F9" d="M511.084,175.026v12.96h0.271c0.898-2.16,2.113-4.162,3.645-6.008c1.529-1.844,3.283-3.419,5.266-4.725
			c1.979-1.304,4.094-2.316,6.344-3.037c2.25-0.72,4.59-1.08,7.02-1.08c1.26,0,2.654,0.225,4.186,0.675v17.819
			c-0.9-0.179-1.98-0.337-3.24-0.473c-1.262-0.135-2.477-0.202-3.645-0.202c-3.51,0-6.48,0.587-8.91,1.755
			c-2.43,1.171-4.387,2.768-5.873,4.793c-1.484,2.025-2.543,4.387-3.172,7.088c-0.631,2.699-0.945,5.625-0.945,8.774v31.455h-19.17
			v-69.795H511.084z"/>
	</g>
</g>
</svg>
